<svg xmlns="http://www.w3.org/2000/svg" viewBox="0 0 512 512" fill="none">
  <!-- Background -->
  <circle cx="256" cy="256" r="256" fill="#0a1628"/>
  <circle cx="256" cy="256" r="240" fill="none" stroke="#ffffff" stroke-width="3" opacity="0.15"/>

  <g stroke-linecap="round" stroke-linejoin="round" fill="none">
    <!-- Light rays -->
    <g stroke="#67e8f9" stroke-width="10" opacity="0.85">
      <path d="M188 150 128 120"/>
      <path d="M182 188 118 214"/>
      <path d="M324 150 384 120"/>
      <path d="M330 188 394 214"/>
    </g>

    <g stroke="#ffffff" stroke-width="12">
      <!-- Lantern roof -->
      <path d="M206 146 256 96 306 146"/>
      <!-- Lantern room -->
      <path d="M214 146v56M298 146v56M256 138v64"/>
      <!-- Gallery platform -->
      <path d="M196 202h120"/>
      <!-- Tower -->
      <path d="M214 202 178 402M298 202 334 402"/>
      <!-- Tower bands -->
      <path d="M204 268h104M192 336h128"/>
      <!-- Door -->
      <path d="M232 402v-34a24 24 0 0 1 48 0v34"/>
      <!-- Base / plinth -->
      <path d="M170 402h172M156 440h200M182 402v38M330 402v38"/>
    </g>
  </g>
</svg>
