<svg width="880" height="520" viewBox="0 0 880 520" fill="none" xmlns="http://www.w3.org/2000/svg">
  <defs>
    <linearGradient id="bg" x1="0" y1="0" x2="1" y2="1">
      <stop offset="0%" stop-color="#0b1929" />
      <stop offset="45%" stop-color="#0f2740" />
      <stop offset="100%" stop-color="#071524" />
    </linearGradient>
    <linearGradient id="route" x1="0" y1="0" x2="1" y2="0">
      <stop offset="0%" stop-color="#F5D36C" />
      <stop offset="50%" stop-color="#E6A93B" />
      <stop offset="100%" stop-color="#D98A1E" />
    </linearGradient>
    <radialGradient id="pulse" cx="0" cy="0" r="1" gradientUnits="userSpaceOnUse" gradientTransform="translate(660 150) rotate(90) scale(70)">
      <stop stop-color="#F5D36C" stop-opacity="0.45" />
      <stop offset="1" stop-color="#F5D36C" stop-opacity="0" />
    </radialGradient>
  </defs>

  <rect width="880" height="520" rx="28" fill="url(#bg)" />

  <g opacity="0.2" stroke="#5FA4D2" stroke-width="1">
    <path d="M0 120C120 100 220 140 340 120C460 100 580 60 700 80C820 100 880 80 880 80" />
    <path d="M0 190C120 170 240 220 360 200C480 180 600 140 720 160C840 180 880 160 880 160" />
    <path d="M0 260C120 240 240 290 360 270C480 250 600 210 720 230C840 250 880 230 880 230" />
    <path d="M0 330C120 310 240 360 360 340C480 320 600 280 720 300C840 320 880 300 880 300" />
    <path d="M0 400C120 380 240 430 360 410C480 390 600 350 720 370C840 390 880 370 880 370" />
  </g>

  <g opacity="0.5">
    <circle cx="190" cy="150" r="80" fill="#1B3B57" />
    <circle cx="270" cy="320" r="120" fill="#19334C" />
    <circle cx="640" cy="260" r="150" fill="#142A3F" />
  </g>

  <path
    d="M150 360C210 300 280 260 360 260C440 260 520 300 600 260C680 220 740 160 800 140"
    stroke="url(#route)"
    stroke-width="4"
    stroke-linecap="round"
    stroke-dasharray="8 10"
  />

  <g fill="#F5D36C" stroke="#0B1929" stroke-width="2">
    <circle cx="150" cy="360" r="10" />
    <circle cx="360" cy="260" r="10" />
    <circle cx="600" cy="260" r="10" />
    <circle cx="800" cy="140" r="10" />
  </g>

  <circle cx="660" cy="150" r="70" fill="url(#pulse)" />

  <g font-family="'Playfair Display', serif" font-size="18" fill="#F4E8D1" opacity="0.9">
    <text x="120" y="430">Leuchtturm</text>
    <text x="330" y="230">Alter Strom</text>
    <text x="570" y="230">Promenade</text>
    <text x="730" y="120">Teepott</text>
  </g>

  <g opacity="0.6">
    <rect x="70" y="70" width="120" height="64" rx="14" fill="#0E2133" stroke="#F5D36C" stroke-opacity="0.25" />
    <text x="88" y="110" font-family="'Inter', sans-serif" font-size="12" fill="#F5D36C">Nächster Halt</text>
    <text x="88" y="128" font-family="'Inter', sans-serif" font-size="14" fill="#F4E8D1">Alter Strom</text>
  </g>
</svg>
