<svg width="600" height="400" viewBox="0 0 600 400" fill="none" xmlns="http://www.w3.org/2000/svg">
  <defs>
    <linearGradient id="bg" x1="0" y1="0" x2="1" y2="1">
      <stop offset="0%" stop-color="#12263E" />
      <stop offset="60%" stop-color="#0A1628" />
      <stop offset="100%" stop-color="#08121E" />
    </linearGradient>
    <linearGradient id="sand" x1="0" y1="0" x2="1" y2="0">
      <stop offset="0%" stop-color="#E6A93B" />
      <stop offset="100%" stop-color="#D98A1E" />
    </linearGradient>
  </defs>
  <rect width="600" height="400" rx="24" fill="url(#bg)" />
  <path d="M0 300H600V400H0V300Z" fill="#0B1929" />
  <path d="M0 280C120 260 220 310 320 290C420 270 520 310 600 290" stroke="#24435F" stroke-width="6" opacity="0.4" />

  <g opacity="0.95">
    <path d="M180 260C200 210 250 180 300 180C350 180 400 210 420 260Z" fill="#F4E8D1" />
    <path d="M150 260H450L430 300H170L150 260Z" fill="url(#sand)" />
    <rect x="230" y="210" width="140" height="30" rx="14" fill="#D98A1E" />
    <rect x="265" y="200" width="70" height="16" rx="8" fill="#F5D36C" />
  </g>

  <circle cx="470" cy="110" r="40" fill="#F5D36C" opacity="0.12" />
  <circle cx="130" cy="110" r="24" fill="#F5D36C" opacity="0.2" />

  <path d="M320 140C360 120 420 120 470 130" stroke="#F5D36C" stroke-width="3" opacity="0.4" />
</svg>
