<svg width="600" height="400" viewBox="0 0 600 400" fill="none" xmlns="http://www.w3.org/2000/svg">
  <defs>
    <linearGradient id="bg" x1="0" y1="0" x2="1" y2="1">
      <stop offset="0%" stop-color="#142642" />
      <stop offset="60%" stop-color="#0B1929" />
      <stop offset="100%" stop-color="#08121E" />
    </linearGradient>
    <linearGradient id="light" x1="0" y1="0" x2="1" y2="0">
      <stop offset="0%" stop-color="#F5D36C" stop-opacity="0" />
      <stop offset="50%" stop-color="#F5D36C" stop-opacity="0.6" />
      <stop offset="100%" stop-color="#F5D36C" stop-opacity="0" />
    </linearGradient>
  </defs>
  <rect width="600" height="400" rx="24" fill="url(#bg)" />
  <path d="M0 300C90 280 170 320 260 300C350 280 430 240 520 260C570 270 600 260 600 260" stroke="#2A4964" stroke-width="6" opacity="0.5" />
  <path d="M0 330C90 310 170 350 260 330C350 310 430 270 520 290C570 300 600 290 600 290" stroke="#1F3B55" stroke-width="6" opacity="0.4" />
  <rect x="270" y="120" width="60" height="170" rx="8" fill="#F4E8D1" opacity="0.95" />
  <rect x="260" y="90" width="80" height="30" rx="8" fill="#D98A1E" />
  <rect x="250" y="70" width="100" height="20" rx="8" fill="#F5D36C" />
  <path d="M300 50L330 70H270L300 50Z" fill="#F4E8D1" />
  <rect x="282" y="150" width="36" height="20" rx="4" fill="#0B1929" />
  <rect x="282" y="200" width="36" height="20" rx="4" fill="#0B1929" />
  <rect x="282" y="250" width="36" height="20" rx="4" fill="#0B1929" />
  <path d="M100 140H500" stroke="url(#light)" stroke-width="28" />
  <circle cx="300" cy="320" r="50" fill="#0B1929" opacity="0.6" />
  <circle cx="300" cy="320" r="36" fill="#1B3249" opacity="0.7" />
</svg>
