<svg width="600" height="400" viewBox="0 0 600 400" fill="none" xmlns="http://www.w3.org/2000/svg">
  <defs>
    <linearGradient id="bg" x1="0" y1="0" x2="1" y2="1">
      <stop offset="0%" stop-color="#0F2740" />
      <stop offset="50%" stop-color="#0B1C2E" />
      <stop offset="100%" stop-color="#081624" />
    </linearGradient>
    <linearGradient id="water" x1="0" y1="0" x2="0" y2="1">
      <stop offset="0%" stop-color="#1D3A53" />
      <stop offset="100%" stop-color="#0B1929" />
    </linearGradient>
  </defs>
  <rect width="600" height="400" rx="24" fill="url(#bg)" />
  <rect y="210" width="600" height="190" fill="url(#water)" />
  <path d="M0 240C120 220 180 260 300 240C420 220 480 260 600 240" stroke="#2F5677" stroke-width="5" opacity="0.4" />
  <path d="M0 280C120 260 180 300 300 280C420 260 480 300 600 280" stroke="#274762" stroke-width="5" opacity="0.35" />

  <g opacity="0.9">
    <rect x="90" y="150" width="70" height="40" rx="8" fill="#F4E8D1" />
    <path d="M80 190H170L150 220H100L80 190Z" fill="#E6A93B" />
    <rect x="115" y="125" width="20" height="25" rx="4" fill="#D98A1E" />
  </g>

  <g opacity="0.9">
    <rect x="260" y="130" width="90" height="50" rx="10" fill="#F4E8D1" />
    <path d="M245 180H365L340 220H270L245 180Z" fill="#F5D36C" />
    <rect x="295" y="100" width="20" height="30" rx="4" fill="#D98A1E" />
  </g>

  <g opacity="0.9">
    <rect x="430" y="160" width="70" height="40" rx="8" fill="#F4E8D1" />
    <path d="M420 200H510L490 230H440L420 200Z" fill="#E6A93B" />
    <rect x="455" y="135" width="18" height="25" rx="4" fill="#D98A1E" />
  </g>

  <circle cx="520" cy="90" r="30" fill="#F5D36C" opacity="0.15" />
  <circle cx="520" cy="90" r="16" fill="#F5D36C" opacity="0.35" />
</svg>
